<svg viewBox="0 0 90 90" xmlns="http://www.w3.org/2000/svg"><defs><linearGradient x1="50%" y1="0%" x2="50%" y2="100%" id="a"><stop stop-color="#008BF4" offset="0%"/><stop stop-color="#00BFFF" offset="100%"/></linearGradient></defs><g fill="none" fill-rule="evenodd"><path fill="url(#a)" d="M0 0h90v90H0z"/><path d="m45.033 10 .923.017c.352.012.668.024.982.041h.035a34.19 34.19 0 0 1 1.932.165l.944.134h.035a28.092 28.092 0 0 1 2.974.617c.735.2 1.388.409 1.993.638.676.251 1.337.542 1.98.87.7.354 1.371.765 2.005 1.228.369.276.685.533.976.794.171.16.33.316.508.502.108.104.189.191.273.29l.026.032.29.356c.233.272.42.58.553.91l1.583-3.53a3.184 3.184 0 0 1 4.52-1.435l.095.058.082.052.395.258.026.017.395.29a34.044 34.044 0 0 1 2.144 1.722c.897.777 1.774 1.62 2.614 2.49a42.997 42.997 0 0 1 4.52 5.565A41.616 41.616 0 0 1 82.7 31.69c.39 1.127.743 2.287 1.034 3.446a39.95 39.95 0 0 1 .726 3.52c.18 1.072.317 2.24.421 3.564l.061.87v.052l.035.87c.02.287.02.6.02.918v.29l.002.202c0 .135-.007.268-.03.401v.455c-.006.412-.012.881-.041 1.348v.264c-.009.203-.032.403-.032.606l-.064.87c-.018.292-.052.62-.084.91l-.09.84v.052l-.117.87c-.04.292-.08.614-.133.904l-.032.197c-.081.493-.163 1.006-.27 1.53l-.157.812v.047l-.183.834a63.405 63.405 0 0 1-.872 3.4c-.107.374-.22.745-.33 1.102l-.17.55-.017.053-.537 1.608a3.226 3.226 0 0 1-4.05 1.962 3.216 3.216 0 0 1-2.067-3.99l.517-1.548c.052-.177.11-.36.165-.542.1-.314.2-.635.29-.954.335-1.18.579-2.154.773-3.023l.172-.774.148-.765c.087-.424.157-.87.227-1.293l.04-.244c.044-.249.073-.478.102-.701l.11-.82.082-.771c.026-.253.052-.49.066-.72l.064-.834c.024-.142.024-.299.024-.452v-.307c.034-.36.034-.734.034-1.096V45c-.014-.252-.014-.481-.014-.71l-.032-.806-.052-.771a35.951 35.951 0 0 0-.355-2.997 33.949 33.949 0 0 0-.613-2.974 33.008 33.008 0 0 0-2-5.733 35.142 35.142 0 0 0-2.978-5.293 36.537 36.537 0 0 0-3.84-4.73 34.728 34.728 0 0 0-1.76-1.708l-.872 1.525c5.914 5.913 9.757 14.646 9.98 22.817l.07.096.02.029c.067.096.128.18.213.313l.02.032a2.68 2.68 0 0 1 .378 1.913 4.204 4.204 0 0 1-.058.313l-.073.316c-.05.188-.105.385-.166.58a8.546 8.546 0 0 1-.476 1.2 5.9 5.9 0 0 1-.256.478 9.679 9.679 0 0 1-.15 1.756 4.345 4.345 0 0 1-1.302 2.52c.137.393.256.796.357 1.202 1.095 4.374.276 9.583-2.44 15.481a46.01 46.01 0 0 1-4.246 7.357l-1.514 2.05a1.858 1.858 0 0 1-3.285-.627l-1.943-7.348c-.467.433-.942.851-1.426 1.255-4.633 3.878-9.763 5.907-14.8 5.907-5.484 0-10.75-2.057-15.235-5.947-.364-.317-.72-.643-1.069-.977l-1.88 7.107a1.858 1.858 0 0 1-3.285.626l-1.51-2.046a45.912 45.912 0 0 1-4.25-7.357c-2.715-5.898-3.535-11.107-2.44-15.48.108-.421.233-.839.375-1.247a4.365 4.365 0 0 1-1.255-2.476 9.716 9.716 0 0 1-.15-1.762 6.625 6.625 0 0 1-.256-.478 8.534 8.534 0 0 1-.47-1.189 8.693 8.693 0 0 1-.3-1.226 2.662 2.662 0 0 1 .378-1.901l.023-.035c.087-.136.148-.22.215-.316l.04-.055c.207-8.25 4.079-17.05 10.05-22.98l-.815-1.429c-.581.548-1.162 1.128-1.743 1.708a36.537 36.537 0 0 0-3.858 4.733 35.126 35.126 0 0 0-2.965 5.319 34.07 34.07 0 0 0-1.13 2.814 34.075 34.075 0 0 0-1.484 5.875 34.686 34.686 0 0 0-.358 3.024l-.052.76-.032.77c-.018.255-.018.484-.018.74v1.185c.006.365.012.739.032 1.081l.015.325c.006.153.023.307.023.46l.061.798c.017.255.044.492.067.721l.084.803.108.792c.032.231.06.47.101.695l.044.267c.07.432.142.87.223 1.272l.154.795.169.762c.195.884.441 1.846.775 3.029.093.313.195.635.29.948l.17.548.514 1.539a3.212 3.212 0 0 1-.605 3.208 3.228 3.228 0 0 1-5.513-1.18l-.534-1.6-.015-.049-.209-.542a55.093 55.093 0 0 1-1.203-4.504l-.18-.823V55.5l-.162-.84a34.99 34.99 0 0 1-.267-1.516l-.035-.217c-.05-.276-.09-.58-.128-.87l-.116-.87v-.049l-.09-.852a19.185 19.185 0 0 1-.087-.933l-.064-.824c-.015-.214-.032-.414-.032-.617v-.29C5 47.173 5 46.701 5 46.287v-1.348c0-.325 0-.638.029-.95l.038-.812v-.052l.058-.87a40.72 40.72 0 0 1 .424-3.591 40.767 40.767 0 0 1 1.76-6.96 41.61 41.61 0 0 1 4.862-9.612 43.053 43.053 0 0 1 4.52-5.547 42.842 42.842 0 0 1 2.615-2.487c.464-.403.938-.794 1.403-1.16.255-.214.5-.4.743-.58l.395-.289.032-.026.474-.313.075-.05a3.184 3.184 0 0 1 4.532 1.415l1.568 3.542c.14-.341.336-.657.581-.933l.267-.334.035-.04a8.056 8.056 0 0 1 .767-.791c.308-.279.627-.537.988-.806a14.55 14.55 0 0 1 1.995-1.226 18.951 18.951 0 0 1 2.007-.87 20.37 20.37 0 0 1 1.984-.635 27.921 27.921 0 0 1 2.96-.614h.035l.924-.125c.703-.081 1.35-.127 1.954-.168h.035c.32-.017.636-.038.95-.038l.953-.017h.07Zm-.038 1.852-.933.018c-.305.008-.607.02-.917.034a34.17 34.17 0 0 0-1.836.157l-.921.122c-.31.049-.627.101-.918.156a22.426 22.426 0 0 0-3.66.994c-.614.229-1.214.492-1.798.789-.608.308-1.191.665-1.743 1.066a11.53 11.53 0 0 0-.836.682c-.12.116-.256.246-.41.405-.067.076-.136.148-.209.232l-.23.29-.072.081c-.307.36-.426.843-.322 1.305-.793.46-1.558.967-2.29 1.518l-2.637-5.88a1.326 1.326 0 0 0-1.888-.591v-.001l-.47.313-.36.258c-.23.168-.457.342-.698.53a38.198 38.198 0 0 0-3.814 3.478 41.159 41.159 0 0 0-4.319 5.328 39.742 39.742 0 0 0-3.355 5.945 37.076 37.076 0 0 0-1.28 3.189 44.065 44.065 0 0 0-.988 3.29 39.076 39.076 0 0 0-.695 3.365 38.706 38.706 0 0 0-.403 3.411l-.058.87-.035.846c-.02.29-.02.58-.02.87v1.307c.005.414.011.846.037 1.27v.29c.009.185.03.37.03.559l.063.843c.017.29.05.58.078.87l.09.852.117.87c.035.272.072.553.119.826l.006.211c.078.47.156.966.255 1.45l.163.84.183.826c.215.977.482 2.02.842 3.296.102.356.212.713.32 1.06l.174.58.535 1.6a1.37 1.37 0 0 0 2.335.482c.325-.37.426-.886.264-1.351l-.523-1.565-.171-.563c-.093-.324-.198-.66-.29-.99a51.992 51.992 0 0 1-.802-3.134l-.174-.786-.154-.8c-.09-.446-.163-.904-.236-1.348l-.04-.243a17.456 17.456 0 0 1-.11-.768l-.111-.818-.087-.817c-.026-.255-.055-.522-.073-.785l-.06-.806c-.012-.171-.027-.342-.027-.513v-.29c-.035-.383-.035-.777-.035-1.16V44.98c0-.284.018-.54.018-.797l.032-.797.063-.795a32.7 32.7 0 0 1 .375-3.188c.198-1.18.407-2.206.648-3.13.264-1.032.575-2.087.918-3.061a37.01 37.01 0 0 1 4.32-8.548 38.413 38.413 0 0 1 4.037-4.971 38.447 38.447 0 0 1 2.323-2.209c.41-.356.822-.696 1.226-1.014l.064-.05 2.643 4.638C19.855 26.786 15.71 35.89 15.71 44.342c-.064.072-.14.168-.183.22a3.04 3.04 0 0 0-.128.166l-.07.092c-.05.073-.096.137-.16.235l-.017.03a.828.828 0 0 0-.116.596 8.987 8.987 0 0 0 .104.507 7.235 7.235 0 0 0 .506 1.415c.128.263.28.515.453.75a9.036 9.036 0 0 0 .11 1.951c.265 1.377.936 1.76 1.453 1.835l.03.354.04.353a12.156 12.156 0 0 0-.677 1.974c-.994 3.954-.21 8.751 2.323 14.258a43.72 43.72 0 0 0 4.067 7.032l1.51 2.047 2.696-10.386a27.238 27.238 0 0 0 3.215 3.316c4.143 3.609 8.988 5.507 14.019 5.507 4.606 0 9.303-1.895 13.611-5.478a32.77 32.77 0 0 0 3.57-3.478l2.78 10.51 1.51-2.047a43.823 43.823 0 0 0 4.067-7.031c2.533-5.505 3.314-10.302 2.323-14.258A12.24 12.24 0 0 0 72.14 53c.041-.29.07-.58.093-.87.514-.095 1.174-.47 1.435-1.834a9.028 9.028 0 0 0 .11-1.948c.175-.237.326-.49.454-.754.147-.303.271-.617.372-.939a8.963 8.963 0 0 0 .188-.722c.018-.084.032-.16.047-.252a.833.833 0 0 0-.113-.606l-.02-.029a5.274 5.274 0 0 0-.16-.234l-.07-.096-.12-.157a3.624 3.624 0 0 0-.232-.29c-.02-8.373-4.113-17.417-10.457-23.139l2.696-4.713.064.05c.404.316.816.658 1.226 1.014a33.89 33.89 0 0 1 2.323 2.209 38.404 38.404 0 0 1 4.038 4.97 37.001 37.001 0 0 1 3.134 5.575c.45.991.851 1.974 1.191 2.965.34.991.656 2.023.92 3.064a36.83 36.83 0 0 1 1.022 6.319h.001l.055.797.032.811c.018.255.018.505.018.795v1.237c-.006.374-.012.771-.035 1.16v.29c-.006.17-.026.341-.026.51l-.061.811c-.015.261-.044.525-.073.794l-.084.798-.11.834c-.032.25-.067.51-.11.763l-.039.231c-.072.447-.145.908-.238 1.36l-.15.788-.175.795a54.283 54.283 0 0 1-.802 3.133c-.087.33-.189.667-.29.991-.058.189-.116.374-.169.554l-.525 1.574c-.162.465-.062.98.264 1.351a1.373 1.373 0 0 0 2.335-.482l.538-1.608.171-.563c.107-.348.218-.704.32-1.06.36-1.264.627-2.32.842-3.293l.183-.835.16-.83c.098-.475.177-.97.255-1.448l.035-.22c.05-.279.087-.563.122-.835l.116-.87.09-.844c.03-.275.061-.565.079-.855l.064-.849c.011-.185.029-.374.029-.56v-.29c.037-.425.037-.854.037-1.269-.002-.148-.008-.237-.008-.423v-.85l-.011-.434-.01-.435-.034-.87-.059-.851c-.113-1.27-.232-2.386-.403-3.41a38.62 38.62 0 0 0-.694-3.364 39.472 39.472 0 0 0-.988-3.293 39.745 39.745 0 0 0-4.656-9.188 41.176 41.176 0 0 0-4.325-5.325 38.953 38.953 0 0 0-2.49-2.374 33.55 33.55 0 0 0-1.333-1.104c-.244-.192-.47-.366-.694-.528l-.363-.26-.401-.273-.076-.047a1.326 1.326 0 0 0-1.876.597l-2.672 5.96a23.055 23.055 0 0 0-2.27-1.53 1.505 1.505 0 0 0-.307-1.377l-.305-.369a8.84 8.84 0 0 0-.619-.635c-.255-.22-.52-.443-.836-.678a12.785 12.785 0 0 0-1.743-1.07 17.101 17.101 0 0 0-1.795-.785 20.385 20.385 0 0 0-1.824-.58 26.048 26.048 0 0 0-2.751-.57l-.912-.122a36.838 36.838 0 0 0-1.836-.157c-.305-.014-.607-.034-.915-.034l-.938-.018Zm7.509 48.452 1.481 5.424 1.063.058c1.615.156 2.652.608 2.882 1.27.229.66-.323 1.643-1.592 2.848-4.654 3.655-8.775 4.424-11.416 4.424a17.749 17.749 0 0 1-9.004-2.456c-1.673-1.2-4.413-3.405-4.047-4.756.268-.971 2.13-1.252 2.905-1.328l1.075-.06 1.475-5.406c1.453 1.295 4.082 3.084 7.553 3.084 3.558 0 6.306-1.942 7.625-3.102Zm-7.04-10.278c.946-.372 12.74-4.891 19.373-1.403 3 1.583 4.889 3.84 5.612 6.728 1.08 4.31-.59 9.342-2.179 12.806a43.529 43.529 0 0 1-2.373 4.44l-2.274-8.594-7.747-.432-1.618-5.933-9.333-4.16-9.333 4.145-1.62 5.934-7.747.431-2.275 8.598a43.563 43.563 0 0 1-2.358-4.412c-2.893-6.287-2.789-10.446-2.19-12.832.72-2.878 2.608-5.14 5.614-6.719 1.656-.872 3.782-1.313 6.321-1.313 6.355 0 13.045 2.71 13.112 2.74l.48.193.475-.194Zm-.542 7.904c2.164 0 4.12.783 5.069 2.015a8.7 8.7 0 0 1-5.106 1.797 8.502 8.502 0 0 1-5.043-1.783c.944-1.24 2.916-2.029 5.08-2.029Zm2.054-18.721 1.888.052c.4.011.81.035 1.205.055l.68.035c.215.008.436.026.65.043l.291.02.613.041.331.02c.398.03.805.067 1.197.102l.668.058c.59.064 1.226.133 1.862.211l.932.13 1.85.29.14.027.081.014c2.2.328 5.827 1.42 5.395 5.032-.047.223-.1.452-.16.681-3.143-1.168-7.195-1.292-12.06-.374-.561-1.603-1.627-2.59-2.647-2.365-1.02.226-1.589 1.594-1.409 3.333a41.023 41.023 0 0 0-3.558 1.16 50.776 50.776 0 0 0-3.544-1.16c.183-1.727-.406-3.113-1.408-3.336-1.002-.223-2.086.763-2.647 2.368-4.984-.942-9.112-.79-12.284.453-.078-.31-.148-.6-.206-.89-.15-1.638.497-3.771 4.39-4.655l.162-.035.462-.084.299-.076.4-.063.201-.035 1.389-.218 1.391-.194a145.31 145.31 0 0 1 1.859-.211l.677-.061a52.52 52.52 0 0 1 1.197-.102l.33-.02.61-.04.291-.02c.215-.018.436-.044.654-.044l.677-.035c.395-.02.804-.055 1.202-.055l1.882-.052h4.067Zm-1.101-23.566.851.03c.572.026 1.13.057 1.688.113l.84.095.29.04.557.082a19.54 19.54 0 0 1 1.647.322c.52.124 1.075.263 1.61.443.583.183 1.089.377 1.539.58.49.221.964.478 1.418.768.183.122.348.24.496.356l-1.99 10.725a.64.64 0 0 0 .468.754.607.607 0 0 0 .709-.415l3.012-8.95c.706.443 1.385.926 2.033 1.449L58.368 28a.61.61 0 0 0 1.086.55l3.016-5.26a28.848 28.848 0 0 1 4.894 6.136 31.292 31.292 0 0 1 3.486 8.183c.142.687.29 1.884-.29 2.426-.42.38-1.18.403-2.27.064l-.107-.056a34.646 34.646 0 0 0-3.703-1.492c-.517-.186-1.049-.342-1.56-.493l-.349-.101-1.118-.29-.317-.081-.473-.114a48.86 48.86 0 0 0-3.872-.773 84.323 84.323 0 0 0-1.946-.29l-.674-.081c-.416-.05-.843-.102-1.27-.145l-.182-.018a59.775 59.775 0 0 0-1.77-.148l-.682-.04c-.413-.026-.842-.055-1.267-.073l-1.949-.072-1.94-.032h-.148l-2.12.035-1.944.072c-.42.02-.848.047-1.263.073l-.683.04c-.604.038-1.185.093-1.766.148l-.186.018c-.424.043-.854.095-1.27.144l-.682.082c-.57.087-1.246.182-1.94.29-1.516.246-2.745.48-3.863.77l-.48.114-.316.08-1.124.29-.337.102c-.515.15-1.043.307-1.557.493a34.763 34.763 0 0 0-3.66 1.475c-1.156.383-1.996.377-2.431-.017-.654-.583-.419-1.968-.29-2.525a31.382 31.382 0 0 1 3.415-8.012 28.706 28.706 0 0 1 5.016-6.272l3.08 5.35a.61.61 0 0 0 1.074-.538l-2.716-6.038a20.972 20.972 0 0 1 2.054-1.45l3.035 9.012c.093.301.4.481.709.415a.64.64 0 0 0 .468-.754l-1.99-10.725a7.97 7.97 0 0 1 .497-.356c.454-.285.929-.537 1.42-.754.453-.203.964-.397 1.545-.594.532-.18 1.107-.322 1.61-.443.502-.122 1.04-.226 1.647-.322l.557-.081 1.121-.136a36.371 36.371 0 0 1 1.688-.114l.851-.029h1.743Zm-.868 15.027-1.926.049c-.314.011-.628.035-.944.06l-.93.073a43.452 43.452 0 0 0-4.165.6l-.29.058a31.042 31.042 0 0 0-1.377.302l-.291.07h-.032c-.258.063-.514.124-.76.19-.172.044-.34.09-.51.14l-.26.075-.192.055c-.19.052-.39.113-.55.16-.16.046-.316.098-.47.147l-.244.079-.197.063c-.163.055-.326.108-.486.163-.395.139-.836.298-1.266.463l-.078.032c-.37.137-.718.284-1.049.426l-.12.053c-.316.13-.597.252-.87.382-.274.13-.561.267-.82.397-.389.194-.711.377-.947.51l-.171.113c-.096.056-.174.105-.235.142l-2.304 1.45 2.827-.902c.22-.072.61-.188 1.161-.345l1.842-.475 1.142-.272.438-.108.831-.182.47-.081c.294-.061.596-.122.904-.18l.523-.096c.316-.06.639-.119.967-.174l.555-.09c.337-.055.68-.11 1.025-.159l.581-.078c.354-.05.715-.099 1.075-.142l.607-.067c.369-.043.74-.084 1.11-.119l.624-.052c.38-.032.761-.064 1.139-.09l.636-.032 1.162-.058 1.763-.032h.046l1.824.02 1.162.059.63.032c.381.026.762.058 1.14.09l.62.052c.376.037.747.078 1.113.118l.605.067c.363.044.72.093 1.074.142l.581.078c.352.05.695.105 1.034.16l.546.087c.332.055.657.116.974.174l.517.092c.322.058.612.12.903.18l.482.099.834.176.435.099.756.18 1.382.348.846.231c.54.157.932.276 1.161.345l2.824.902-2.132-1.354-.163-.101a6.998 6.998 0 0 0-.235-.142l-.16-.099a19.593 19.593 0 0 0-.947-.51c-.264-.136-.552-.272-.819-.4-.267-.127-.56-.255-.871-.391l-.102-.047c-.354-.15-.73-.301-1.127-.458a15.91 15.91 0 0 0-.474-.176l-.145-.053-.22-.08-.428-.154a17.016 17.016 0 0 0-.482-.16l-.203-.066-.241-.079a24.737 24.737 0 0 0-1.014-.307l-.197-.055-.262-.075c-.165-.05-.337-.099-.502-.14a52.67 52.67 0 0 0-.782-.194h-.017l-.29-.066a29.375 29.375 0 0 0-1.38-.301l-.29-.059a44.054 44.054 0 0 0-4.174-.6l-.942-.072c-.31-.023-.639-.061-.961-.061l-1.011-.026-.816-.023Z" fill="#FFF" fill-rule="nonzero"/></g></svg>